<svg viewBox="0 0 50 50" fill="none" xmlns="http://www.w3.org/2000/svg">
    <path d="M29.1666 4.16667H12.5C10.2083 4.16667 8.35415 6.04167 8.35415 8.33334L8.33331 41.6667C8.33331 43.9583 10.1875 45.8333 12.4791 45.8333H37.5C39.7916 45.8333 41.6666 43.9583 41.6666 41.6667V16.6667L29.1666 4.16667ZM12.5 8.33334H27.0833L37.5 18.75V36.625L33.6666 32.7917C36.3333 28.75 35.8958 23.2708 32.3333 19.7083C30.3125 17.6875 27.6666 16.6667 25 16.6667C22.3333 16.6667 19.6875 17.6875 17.6458 19.7083C13.5833 23.7708 13.5833 30.3542 17.6458 34.3958C19.6666 36.4167 22.3333 37.4375 25 37.4375C27 37.4375 29 36.8542 30.7291 35.7083L36.6666 41.6667H12.5V8.33334ZM29.3958 31.4583C28.2291 32.625 26.6666 33.2917 25 33.2917C23.3333 33.2917 21.7708 32.6458 20.6041 31.4583C19.4375 30.2917 18.7708 28.7292 18.7708 27.0625C18.7708 25.3958 19.4166 23.8333 20.6041 22.6667C21.7708 21.4792 23.3333 20.8333 25 20.8333C26.6666 20.8333 28.2291 21.4792 29.3958 22.6667C30.5625 23.8333 31.2291 25.3958 31.2291 27.0625C31.2291 28.7292 30.5833 30.2917 29.3958 31.4583Z" fill="black"/>
</svg>
