<svg version="1.0" xmlns="http://www.w3.org/2000/svg"
     fill="#fff"
 viewBox="0 0 1279.000000 355.000000"
 preserveAspectRatio="xMidYMid meet">
<g transform="translate(0.000000,355.000000) scale(0.100000,-0.100000)" stroke="none">
<path d="M5090 1775 l0 -1775 40 0 40 0 0 1775 0 1775 -40 0 -40 0 0 -1775z"/>
<path d="M0 1615 l0 -1215 2350 0 2350 0 0 1215 0 1215 -2350 0 -2350 0 0
-1215z m3335 745 c331 -28 498 -146 572 -405 14 -50 17 -120 21 -432 l4 -373
124 0 124 0 0 -175 0 -175 -365 0 -365 0 0 64 0 64 -75 -42 c-140 -81 -283
-112 -431 -95 -268 30 -432 170 -464 397 -46 327 206 571 596 574 125 1 185
-11 297 -58 l77 -32 0 90 c0 118 -14 162 -70 220 -58 60 -127 82 -243 76 -91
-4 -166 -32 -234 -87 l-38 -30 -183 33 c-101 19 -186 36 -189 39 -11 11 59
107 118 161 110 102 285 169 484 185 55 5 105 9 110 9 6 1 64 -3 130 -8z
m-1520 -22 c148 -37 248 -146 297 -325 20 -72 22 -108 26 -470 l4 -393 114 0
114 0 0 -175 0 -175 -360 0 -360 0 0 513 c0 308 -4 526 -10 548 -16 58 -51 82
-124 87 -74 5 -153 -15 -238 -60 l-58 -31 0 -353 0 -354 120 0 120 0 0 -175 0
-175 -475 0 -475 0 0 175 0 175 115 0 115 0 0 415 0 415 -115 0 -115 0 0 180
0 180 355 0 354 0 3 -75 3 -75 54 36 c167 113 367 155 536 112z"/>
<path d="M3057 1466 c-82 -31 -117 -85 -117 -183 0 -136 61 -198 195 -198 81
0 160 32 258 105 l57 43 0 73 0 73 -42 25 c-115 67 -267 94 -351 62z"/>
<path d="M5948 2607 l-238 -172 0 -122 0 -123 -100 0 -100 0 0 -185 0 -185
100 0 99 0 3 -462 c3 -449 4 -465 25 -516 62 -151 171 -213 378 -213 130 0
230 18 348 63 l27 10 0 175 0 175 -22 -6 c-138 -36 -204 -29 -238 27 -19 30
-20 53 -20 390 l0 357 140 0 140 0 0 185 0 185 -140 0 -140 0 0 295 c0 230 -3
295 -12 294 -7 -1 -120 -78 -250 -172z"/>
<path d="M10438 2607 l-238 -172 0 -122 0 -123 -100 0 -100 0 0 -185 0 -185
100 0 99 0 3 -462 c3 -449 4 -465 25 -516 62 -151 171 -213 378 -213 130 0
230 18 348 63 l27 10 0 175 0 175 -22 -6 c-138 -36 -204 -29 -238 27 -19 30
-20 53 -20 390 l0 357 140 0 140 0 0 185 0 185 -140 0 -140 0 0 295 c0 230 -3
295 -12 294 -7 -1 -120 -78 -250 -172z"/>
<path d="M7321 2209 c-327 -64 -584 -324 -646 -654 -21 -107 -15 -294 10 -390
58 -217 233 -410 442 -489 146 -54 185 -60 393 -61 231 0 292 12 446 85 80 39
118 65 181 124 88 83 141 152 127 165 -10 10 -355 121 -374 121 -7 0 -37 -22
-67 -50 -174 -159 -423 -164 -566 -11 -55 58 -83 111 -101 191 l-14 60 574 0
574 0 0 53 c0 28 -7 95 -15 147 -56 371 -266 625 -578 700 -88 21 -299 26
-386 9z m286 -355 c84 -41 165 -149 180 -241 l6 -33 -312 0 c-357 0 -328 -11
-290 105 35 104 103 169 206 195 58 14 151 3 210 -26z"/>
<path d="M11811 2209 c-327 -64 -584 -324 -646 -654 -21 -107 -15 -294 10
-390 58 -217 233 -410 442 -489 146 -54 185 -60 393 -61 231 0 292 12 446 85
80 39 118 65 181 124 88 83 141 152 127 165 -10 10 -355 121 -374 121 -7 0
-37 -22 -67 -50 -174 -159 -423 -164 -566 -11 -55 58 -83 111 -101 191 l-14
60 574 0 574 0 0 53 c0 28 -7 95 -15 147 -56 371 -266 625 -578 700 -88 21
-299 26 -386 9z m286 -355 c84 -41 165 -149 180 -241 l6 -33 -312 0 c-357 0
-328 -11 -290 105 35 104 103 169 206 195 58 14 151 3 210 -26z"/>
<path d="M8824 2191 c-155 -39 -269 -122 -326 -239 -32 -64 -33 -71 -33 -192
0 -121 1 -128 32 -191 84 -171 252 -253 668 -329 235 -43 295 -77 295 -164 0
-94 -77 -131 -259 -124 -80 3 -117 9 -152 25 -83 37 -135 96 -163 186 -5 15
-23 17 -186 17 l-180 0 0 -270 0 -270 180 0 180 0 0 30 c0 17 2 30 5 30 2 0
21 -11 41 -25 66 -45 127 -58 296 -63 124 -3 174 0 235 13 164 36 299 127 362
244 102 192 71 460 -66 581 -60 52 -203 123 -315 154 -47 14 -157 37 -245 51
-254 41 -313 65 -313 126 0 46 17 69 68 92 65 29 218 28 313 -2 71 -23 134
-73 145 -116 l6 -25 179 0 179 0 0 230 0 230 -180 0 c-176 0 -180 0 -180 -21
0 -16 -4 -19 -17 -14 -10 4 -52 16 -93 27 -108 30 -375 35 -476 9z"/>
</g>
</svg>
