<svg width="50" height="50" viewBox="0 0 50 50" fill="none" xmlns="http://www.w3.org/2000/svg">
    <path d="M22.4792 33.9375C23.2917 34.75 24.6042 34.75 25.4167 33.9375L32.8958 26.4583C33.7083 25.6458 33.7083 24.3333 32.8958 23.5208L25.4167 16.0417C24.6042 15.2292 23.2917 15.2292 22.4792 16.0417C21.6667 16.8542 21.6667 18.1667 22.4792 18.9792L26.3958 22.9167H8.33333C7.1875 22.9167 6.25 23.8542 6.25 25C6.25 26.1458 7.1875 27.0833 8.33333 27.0833H26.3958L22.4792 31C21.6667 31.8125 21.6875 33.1458 22.4792 33.9375ZM39.5833 6.25H10.4167C8.10417 6.25 6.25 8.125 6.25 10.4167V16.6667C6.25 17.8125 7.1875 18.75 8.33333 18.75C9.47917 18.75 10.4167 17.8125 10.4167 16.6667V12.5C10.4167 11.3542 11.3542 10.4167 12.5 10.4167H37.5C38.6458 10.4167 39.5833 11.3542 39.5833 12.5V37.5C39.5833 38.6458 38.6458 39.5833 37.5 39.5833H12.5C11.3542 39.5833 10.4167 38.6458 10.4167 37.5V33.3333C10.4167 32.1875 9.47917 31.25 8.33333 31.25C7.1875 31.25 6.25 32.1875 6.25 33.3333V39.5833C6.25 41.875 8.125 43.75 10.4167 43.75H39.5833C41.875 43.75 43.75 41.875 43.75 39.5833V10.4167C43.75 8.125 41.875 6.25 39.5833 6.25Z" fill="black"/>
</svg>
