<svg width="200" height="61" viewBox="0 0 200 61" fill="none" xmlns="http://www.w3.org/2000/svg">
    <path d="M83.6305 0C83.6305 20.2453 83.6305 40.4905 83.6305 60.8C83.1991 60.8 82.8148 60.8 82.3565 60.8C82.343 60.5218 82.316 60.2436 82.316 59.9725C82.316 40.2409 82.316 20.5021 82.316 0.770434C82.316 0.513623 82.3363 0.256811 82.343 0C82.7677 0 83.1991 0 83.6305 0Z" fill="black"/>
    <path d="M0 53.9517C0 40.1053 0 26.3017 0 12.4268C25.3176 12.4268 50.6151 12.4268 75.9664 12.4268C75.9664 26.2375 75.9664 40.0625 75.9664 53.9517C50.6892 53.9517 25.3918 53.9517 0 53.9517ZM7.96737 22.9489C7.96737 24.8607 7.96737 26.6727 7.96737 28.5702C9.12676 28.5702 10.2457 28.5702 11.3849 28.5702C11.3849 32.9503 11.3849 37.2305 11.3849 41.6105C10.1985 41.6105 9.08631 41.6105 7.96737 41.6105C7.96737 43.5152 7.96737 45.3272 7.96737 47.1605C12.7667 47.1605 17.5188 47.1605 22.2709 47.1605C22.2709 45.2844 22.2709 43.4653 22.2709 41.5606C21.1115 41.5606 19.9926 41.5606 18.9141 41.5606C18.8467 41.4179 18.8062 41.3751 18.8062 41.3252C18.7928 37.901 18.786 34.4769 18.7928 31.0527C18.7928 30.8387 18.9343 30.5463 19.1028 30.4321C20.3363 29.5547 21.6642 28.984 23.1876 29.0767C24.1313 29.1338 24.7043 29.5975 24.893 30.5819C25.0211 31.2453 25.075 31.9373 25.075 32.615C25.0885 37.152 25.0817 41.689 25.0817 46.226C25.0817 46.5327 25.0817 46.8324 25.0817 47.1748C28.7351 47.1748 32.2807 47.1748 35.8599 47.1748C35.8599 45.2986 35.8599 43.4653 35.8599 41.5392C34.714 41.5392 33.6153 41.5392 32.557 41.5392C32.5099 41.3965 32.4829 41.3395 32.4829 41.2895C32.4762 38.1793 32.4964 35.069 32.4559 31.9587C32.4424 30.7959 32.3481 29.6189 32.1526 28.4775C31.4314 24.2758 28.8025 22.1999 24.7919 22.5352C22.8843 22.6993 21.1857 23.4126 19.5949 24.4898C19.359 24.6539 19.1096 24.7965 18.7456 25.032C18.7456 24.2401 18.7456 23.6052 18.7456 22.9418C15.1259 22.9489 11.5736 22.9489 7.96737 22.9489ZM60.4968 41.582C60.4968 41.1254 60.5035 40.7902 60.4968 40.4477C60.4428 36.7953 60.49 33.1429 60.308 29.4976C60.1665 26.637 58.6836 24.6182 56.1761 23.4768C54.4909 22.7135 52.7114 22.4282 50.8982 22.364C48.1885 22.2712 45.5057 22.4424 42.9847 23.6409C41.0569 24.5611 39.5875 25.9807 38.6573 28.1351C40.3963 28.4704 42.068 28.7557 43.7194 29.1267C44.2991 29.2551 44.7036 29.1623 45.1687 28.7557C45.7012 28.292 46.3281 27.9068 46.9751 27.6643C50.6757 26.3089 53.7494 28.9412 53.0349 32.829C51.9227 32.5294 50.824 32.1228 49.6984 31.9444C46.2 31.4023 42.9915 32.0229 40.3896 34.8193C37.7743 37.63 37.5586 43.2513 41.4614 45.855C45.0541 48.2519 48.6873 48.0665 52.307 45.8693C52.5496 45.7195 52.7855 45.5697 53.0956 45.3771C53.1293 46.0476 53.1563 46.5969 53.19 47.1391C56.904 47.1391 60.5237 47.1391 64.1367 47.1391C64.1367 45.2558 64.1367 43.4367 64.1367 41.5677C62.9234 41.582 61.7707 41.582 60.4968 41.582Z" fill="black"/>
    <path d="M200 36.7953C194.149 36.7953 188.501 36.7953 182.859 36.7953C182.771 41.9101 187.955 43.8719 191.015 42.1313C191.884 41.639 192.639 40.9257 193.475 40.3621C193.731 40.1909 194.122 40.0197 194.378 40.0982C196.104 40.6332 197.816 41.2396 199.73 41.8887C199.009 42.7733 198.409 43.6436 197.681 44.3641C194.911 47.1177 191.5 47.8881 187.826 47.7954C185.508 47.7383 183.256 47.346 181.214 46.1404C176.887 43.5937 175.242 39.5061 175.565 34.4697C175.882 29.4548 178.174 25.624 182.535 23.5981C186.89 21.5721 191.257 21.8075 195.255 24.8393C197.87 26.8153 199.117 29.6617 199.609 32.9289C199.791 34.1558 199.865 35.4042 200 36.7953ZM192.471 32.3439C191.958 29.1124 190.044 27.4074 187.193 27.5644C184.834 27.6999 183.128 29.626 183.007 32.3439C186.148 32.3439 189.282 32.3439 192.471 32.3439Z" fill="black"/>
    <path d="M130.693 36.8024C124.863 36.8024 119.241 36.8024 113.619 36.8024C113.437 39.6773 115.385 42.1027 118.196 42.6449C120.488 43.0872 122.315 42.117 123.932 40.5761C124.472 40.0625 124.896 39.9698 125.557 40.2194C127.101 40.7973 128.678 41.2895 130.478 41.8958C129.682 42.8446 129.028 43.772 128.24 44.5353C125.422 47.239 121.984 47.9238 118.324 47.7882C115.062 47.667 112.035 46.8181 109.595 44.3641C106.791 41.5392 105.942 37.9581 106.326 34.0488C107.378 23.4054 117.812 19.9884 124.714 23.9619C128.125 25.9236 129.824 29.1552 130.37 33.1215C130.531 34.2843 130.585 35.4756 130.693 36.8024ZM123.191 32.351C122.76 29.1266 120.65 27.3004 117.758 27.5786C115.466 27.7998 113.693 29.9113 113.781 32.351C116.895 32.351 120.016 32.351 123.191 32.351Z" fill="black"/>
    <path d="M140.433 46.2973C140.42 46.5969 140.4 46.8823 140.386 47.2033C138.634 47.2033 136.895 47.2033 135.102 47.2033C135.102 44.4354 135.102 41.689 135.102 38.8997C136.874 38.8997 138.613 38.8997 140.353 38.8997C141.027 41.4536 143.042 42.8518 145.792 42.5593C146.648 42.4666 147.518 42.1527 148.313 41.7889C148.94 41.5035 149.23 40.8543 149.169 40.0911C149.109 39.3278 148.643 38.8712 148.03 38.6929C146.689 38.2934 145.32 37.9652 143.959 37.6727C141.687 37.1805 139.422 36.6598 137.387 35.4185C133.545 33.0716 132.999 28.0994 136.221 24.875C137.697 23.3983 139.517 22.7349 141.498 22.6208C142.651 22.5566 143.817 22.5994 144.963 22.7563C146.096 22.9204 147.208 23.2842 148.401 23.5838C148.435 23.4269 148.482 23.22 148.536 22.9775C150.214 22.9775 151.906 22.9775 153.645 22.9775C153.645 25.2959 153.645 27.5858 153.645 29.9898C152.027 29.9898 150.416 29.997 148.812 29.9756C148.664 29.9756 148.441 29.8329 148.381 29.6973C147.787 28.3491 146.655 27.7927 145.395 27.6643C144.154 27.543 142.88 27.6143 141.633 27.757C141.209 27.8069 140.717 28.2635 140.467 28.6701C140.029 29.3977 140.366 30.211 141.236 30.4535C142.719 30.8673 144.228 31.1312 145.725 31.4879C147.248 31.8517 148.785 32.1656 150.268 32.6507C153.328 33.6494 155.135 36.0748 155.263 39.1565C155.411 42.6877 153.787 45.5911 150.821 46.8751C148.091 48.0522 145.253 48.1093 142.422 47.2818C141.755 47.0892 141.134 46.654 140.433 46.2973Z" fill="black"/>
    <path d="M168.205 28.5631C168.205 32.4082 168.171 36.0891 168.225 39.7629C168.245 41.1183 168.656 41.4465 169.944 41.4536C170.341 41.4536 170.746 41.3894 171.144 41.3252C171.508 41.261 171.865 41.1469 172.364 41.0256C172.364 42.7662 172.37 44.4283 172.35 46.0976C172.35 46.2403 172.161 46.4543 172.02 46.5114C169.607 47.453 167.146 47.9952 164.585 47.3103C162.084 46.6398 160.824 44.6709 160.81 41.4893C160.797 37.523 160.803 33.5638 160.803 29.5975C160.803 29.2907 160.803 28.984 160.803 28.6202C159.819 28.6202 158.916 28.6202 157.952 28.6202C157.952 26.7226 157.952 24.8893 157.952 22.9632C158.876 22.9632 159.806 22.9632 160.803 22.9632C160.803 21.8218 160.783 20.7732 160.817 19.7317C160.824 19.4606 160.925 19.0825 161.114 18.9327C163.392 17.1636 165.69 15.4301 168.117 13.5896C168.117 16.7641 168.117 19.7887 168.117 22.9204C169.566 22.9204 170.921 22.9204 172.323 22.9204C172.323 24.8394 172.323 26.6513 172.323 28.5774C170.962 28.5631 169.607 28.5631 168.205 28.5631Z" fill="black"/>
    <path d="M91.5304 28.5774C90.5126 28.5774 89.6026 28.5774 88.6589 28.5774C88.6589 26.6941 88.6589 24.875 88.6589 22.9561C89.5891 22.9561 90.5126 22.9561 91.5304 22.9561C91.5304 21.8075 91.5035 20.7589 91.5439 19.7174C91.5574 19.4249 91.6922 19.0325 91.9012 18.8685C94.0918 17.1635 96.3095 15.4943 98.5204 13.8179C98.5811 13.7751 98.662 13.7608 98.8305 13.6895C98.8305 16.7712 98.8305 19.803 98.8305 22.9275C100.28 22.9275 101.635 22.9275 103.023 22.9275C103.023 24.8465 103.023 26.6584 103.023 28.5774C101.655 28.5774 100.3 28.5774 98.8574 28.5774C98.8574 29.412 98.8574 30.1468 98.8574 30.8815C98.8709 33.735 98.8237 36.5884 98.9114 39.4347C98.9653 41.2182 99.4102 41.5606 101.082 41.4322C101.715 41.3822 102.342 41.2039 103.064 41.0612C103.064 42.7234 103.07 44.3712 103.05 46.0191C103.05 46.1903 102.868 46.4471 102.713 46.5042C100.327 47.4458 97.8868 47.9666 95.3591 47.3032C92.9662 46.6754 91.618 44.8421 91.5709 42.0385C91.5035 37.9296 91.5372 33.8206 91.5304 29.7187C91.5304 29.3906 91.5304 29.0482 91.5304 28.5774Z" fill="black"/>
    <path d="M53.2506 39.1708C53.3113 39.9484 52.9743 40.4477 52.4283 40.783C51.4442 41.3965 50.487 42.1598 49.4152 42.5094C47.3594 43.1942 45.5259 41.5677 45.6136 39.3277C45.681 37.6299 47.42 36.1461 49.1928 36.5456C50.4533 36.831 51.6464 37.4944 52.8192 38.0936C53.0686 38.2292 53.1091 38.7999 53.2506 39.1708Z" fill="black"/>
</svg>
