<svg  viewBox="0 0 50 50" fill="none" xmlns="http://www.w3.org/2000/svg">
    <path d="M29.1667 18.75H20.8333C19.6875 18.75 18.75 17.8125 18.75 16.6666C18.75 15.5208 19.6875 14.5833 20.8333 14.5833H29.1667C30.3125 14.5833 31.25 15.5208 31.25 16.6666C31.25 17.8125 30.3125 18.75 29.1667 18.75Z" fill="black"/>
    <path d="M29.1667 25H20.8333C19.6875 25 18.75 24.0625 18.75 22.9167C18.75 21.7708 19.6875 20.8333 20.8333 20.8333H29.1667C30.3125 20.8333 31.25 21.7708 31.25 22.9167C31.25 24.0625 30.3125 25 29.1667 25Z" fill="black"/>
    <path d="M40.625 7.29166L37.5 4.16666L34.375 7.29166L31.25 4.16666L28.125 7.29166L25 4.16666L21.875 7.29166L18.75 4.16666L15.625 7.29166L12.5 4.16666V33.3333H8.33333C7.1875 33.3333 6.25 34.2708 6.25 35.4167V39.5833C6.25 43.0417 9.04167 45.8333 12.5 45.8333H37.5C40.9583 45.8333 43.75 43.0417 43.75 39.5833V4.16666L40.625 7.29166ZM31.25 41.6667H12.5C11.3542 41.6667 10.4167 40.7292 10.4167 39.5833V37.5H16.6667H25H31.25V41.6667ZM39.5833 39.5833C39.5833 40.7292 38.6458 41.6667 37.5 41.6667C36.3542 41.6667 35.4167 40.7292 35.4167 39.5833V35.4167C35.4167 34.2708 34.4792 33.3333 33.3333 33.3333H29.1667H25H16.6667V10.4167H39.5833V39.5833Z" fill="black"/>
    <path d="M35.4166 18.75C36.5672 18.75 37.5 17.8172 37.5 16.6666C37.5 15.5161 36.5672 14.5833 35.4166 14.5833C34.2661 14.5833 33.3333 15.5161 33.3333 16.6666C33.3333 17.8172 34.2661 18.75 35.4166 18.75Z" fill="black"/>
    <path d="M35.4166 25C36.5672 25 37.5 24.0673 37.5 22.9167C37.5 21.7661 36.5672 20.8333 35.4166 20.8333C34.2661 20.8333 33.3333 21.7661 33.3333 22.9167C33.3333 24.0673 34.2661 25 35.4166 25Z" fill="black"/>
</svg>
