<svg width="50" height="50" viewBox="0 0 50 50" fill="none" xmlns="http://www.w3.org/2000/svg">
    <path d="M25 4.16666C13.5 4.16666 4.16669 13.5 4.16669 25C4.16669 36.5 13.5 45.8333 25 45.8333C36.5 45.8333 45.8334 36.5 45.8334 25C45.8334 13.5 36.5 4.16666 25 4.16666ZM14.7292 38.0833C15.625 36.2083 21.0834 34.375 25 34.375C28.9167 34.375 34.3959 36.2083 35.2709 38.0833C32.4375 40.3333 28.875 41.6667 25 41.6667C21.125 41.6667 17.5625 40.3333 14.7292 38.0833ZM38.25 35.0625C35.2709 31.4375 28.0417 30.2083 25 30.2083C21.9584 30.2083 14.7292 31.4375 11.75 35.0625C9.62502 32.2708 8.33335 28.7917 8.33335 25C8.33335 15.8125 15.8125 8.33332 25 8.33332C34.1875 8.33332 41.6667 15.8125 41.6667 25C41.6667 28.7917 40.375 32.2708 38.25 35.0625V35.0625ZM25 12.5C20.9584 12.5 17.7084 15.75 17.7084 19.7917C17.7084 23.8333 20.9584 27.0833 25 27.0833C29.0417 27.0833 32.2917 23.8333 32.2917 19.7917C32.2917 15.75 29.0417 12.5 25 12.5ZM25 22.9167C23.2709 22.9167 21.875 21.5208 21.875 19.7917C21.875 18.0625 23.2709 16.6667 25 16.6667C26.7292 16.6667 28.125 18.0625 28.125 19.7917C28.125 21.5208 26.7292 22.9167 25 22.9167Z" fill="black"/>
</svg>
