<svg width="50" height="50" viewBox="0 0 50 50" fill="none" xmlns="http://www.w3.org/2000/svg">
    <path d="M34.5625 15.7917L20.8334 29.5208L13.3542 22.0625L10.4167 25L20.8334 35.4167L37.5 18.75L34.5625 15.7917ZM25 4.16666C13.5 4.16666 4.16669 13.5 4.16669 25C4.16669 36.5 13.5 45.8333 25 45.8333C36.5 45.8333 45.8334 36.5 45.8334 25C45.8334 13.5 36.5 4.16666 25 4.16666ZM25 41.6667C15.7917 41.6667 8.33335 34.2083 8.33335 25C8.33335 15.7917 15.7917 8.33333 25 8.33333C34.2084 8.33333 41.6667 15.7917 41.6667 25C41.6667 34.2083 34.2084 41.6667 25 41.6667Z" fill="black"/>
</svg>
