<svg xmlns="http://www.w3.org/2000/svg" viewBox="0 0 24 24"><path d="M 4 2 C 4 3.3333333 4.8142205 4.2752743 5.5527344 4.6445312 C 6.2912483 5.0137882 7 5 7 5 L 11 5 L 11 7.0761719 C 7.0556483 7.5978668 4 10.977502 4 15.0625 L 4 20 C 4 21.105 4.895 22 6 22 L 18 22 C 19.105 22 20 21.105 20 20 L 20 15.0625 C 20 10.977502 16.944352 7.5978668 13 7.0761719 L 13 5 L 17 5 C 17 5 17.708752 5.013788 18.447266 4.6445312 C 19.18578 4.2752744 20 3.3333333 20 2 L 18 2 C 18 2.6666667 17.81422 2.7247257 17.552734 2.8554688 C 17.291248 2.9862117 17 3 17 3 L 7 3 C 7 3 6.7087517 2.9862118 6.4472656 2.8554688 C 6.1857795 2.7247256 6 2.6666667 6 2 L 4 2 z M 12 11 C 12.74 11 13.424531 11.214406 14.019531 11.566406 L 11.292969 14.292969 C 10.901969 14.683969 10.901969 15.316031 11.292969 15.707031 C 11.487969 15.902031 11.744 16 12 16 C 12.256 16 12.512031 15.902031 12.707031 15.707031 L 15.433594 12.980469 C 15.785594 13.575469 16 14.26 16 15 C 16 17.206 14.206 19 12 19 C 9.794 19 8 17.206 8 15 C 8 12.794 9.794 11 12 11 z"/></svg>